<svg width="120" height="120" viewBox="0 0 120 120" fill="none" xmlns="http://www.w3.org/2000/svg">
<path d="M79.2602 44.905H56.3202V0H79.2602C91.6402 0 101.71 10.07 101.71 22.45C101.71 34.83 91.6402 44.905 79.2602 44.905ZM63.6752 37.55H79.2602C87.5852 37.55 94.3552 30.775 94.3552 22.455C94.3552 14.135 87.5802 7.36 79.2602 7.36H63.6752V37.55ZM63.6752 44.905H40.7402C28.3602 44.905 18.2902 34.835 18.2902 22.455C18.2902 10.075 28.3602 0 40.7402 0H63.6802V44.905H63.6752ZM40.7402 7.355C32.4152 7.355 25.6452 14.13 25.6452 22.45C25.6452 30.77 32.4152 37.55 40.7402 37.55H56.3252V7.355H40.7402ZM63.6752 82.45H40.7402C28.3602 82.45 18.2902 72.38 18.2902 60C18.2902 47.62 28.3602 37.55 40.7402 37.55H63.6802V82.45H63.6752ZM40.7402 44.905C32.4152 44.905 25.6452 51.68 25.6452 60C25.6452 68.32 32.4202 75.095 40.7402 75.095H56.3252V44.905H40.7402ZM40.8602 120C28.4152 120 18.2852 109.93 18.2852 97.55C18.2852 85.17 28.3552 75.1 40.7352 75.1H63.6752V97.305C63.6752 109.82 53.4402 120 40.8602 120ZM40.7402 82.45C36.7383 82.4553 32.9019 84.0474 30.0722 86.8771C27.2425 89.7068 25.6504 93.5432 25.6452 97.545C25.6452 105.87 32.4702 112.64 40.8652 112.64C49.3902 112.64 56.3302 105.76 56.3302 97.3V82.45H40.7402ZM79.2602 82.45H78.7702C66.3902 82.45 56.3202 72.38 56.3202 60C56.3202 47.62 66.3902 37.55 78.7702 37.55H79.2602C91.6402 37.55 101.71 47.62 101.71 60C101.71 72.38 91.6402 82.45 79.2602 82.45ZM78.7752 44.905C70.4502 44.905 63.6802 51.68 63.6802 60C63.6802 68.32 70.4552 75.095 78.7752 75.095H79.2652C87.5902 75.095 94.3602 68.32 94.3602 60C94.3602 51.68 87.5802 44.905 79.2602 44.905H78.7752Z" fill="#B4FAEC"/>
</svg>
