<svg width="24" height="24" viewBox="0 0 24 24" fill="none" xmlns="http://www.w3.org/2000/svg">
<g clip-path="url(#clip0_223_518)">
<path d="M21.6172 16.4007C21.0884 15.861 20.3163 15.386 19.2311 14.9446C19.0801 14.8741 18.925 14.8073 18.78 14.7449C18.7435 14.7292 18.7076 14.7137 18.6726 14.6986C18.4895 14.6193 18.326 14.5461 18.181 14.4695C17.8992 14.3208 17.7634 14.1972 17.7048 14.0886C17.6348 13.8237 17.6496 13.7588 17.6666 13.7028L17.6713 13.6871L17.675 13.6711C17.7047 13.5435 17.7901 13.4472 17.9521 13.3865C18.1249 13.3218 18.3526 13.3153 18.5577 13.3764C18.8009 13.4518 19.0556 13.6476 19.2266 14.011L19.4715 14.531L19.9526 14.2165C20.5649 13.8162 20.8128 13.6541 21.0628 13.4953C21.2343 13.3864 21.4067 13.279 21.6983 13.0974L22.1289 12.8293L21.8546 12.4026C21.5861 11.985 21.4281 11.7645 21.2102 11.5479C20.4622 10.7177 19.471 10.3258 18.0026 10.3591L17.9769 10.3597L17.9514 10.3629L17.2464 10.4519L17.2181 10.4555L17.1904 10.4623C16.4396 10.6455 15.6927 11.0495 15.2175 11.6297C14.54 12.402 14.3155 13.4367 14.4429 14.3901C14.57 15.3412 15.0553 16.2721 15.8783 16.8317C16.5027 17.2958 17.2489 17.6093 17.8637 17.8676C17.9789 17.9159 18.0894 17.9624 18.1936 18.0075C18.543 18.1587 18.817 18.2915 19.0155 18.4313C19.2032 18.5635 19.273 18.6672 19.2975 18.7459C19.3363 18.948 19.3114 19.0771 19.275 19.1595C19.2376 19.2441 19.1689 19.3225 19.051 19.3909C18.8016 19.5356 18.3842 19.6011 17.903 19.5456C17.5737 19.4697 17.3363 19.354 17.132 19.1925C16.9161 19.0218 16.7144 18.7823 16.4803 18.4276L16.2215 18.0354L15.814 18.2694L13.984 19.3204L13.5952 19.5437L13.7749 19.9544C13.9774 20.4172 14.2239 20.6934 14.4837 20.9844C14.543 21.0508 14.603 21.118 14.6634 21.1884L14.6751 21.2021L14.6878 21.2149C15.6922 22.2285 17.38 22.6653 18.8866 22.5184C20.3931 22.3715 21.9185 21.6119 22.3919 20.0063L22.3919 20.0062C22.4364 19.8686 22.651 19.2045 22.495 18.2102L22.5277 18.1971C22.4251 17.5547 22.1592 16.954 21.6172 16.4007ZM13.5497 11.0666L13.588 10.531H13.051H10.803H10.303V11.031C10.303 11.9991 10.3008 12.9643 10.2985 13.9305L10.2985 13.9312C10.2963 14.8975 10.294 15.8648 10.294 16.836C10.294 17.0958 10.2966 17.3429 10.2991 17.5767C10.3027 17.9176 10.306 18.2303 10.3005 18.5132C10.2959 18.747 10.2854 18.9385 10.2664 19.0862C10.2482 19.2285 10.2269 19.286 10.2234 19.2956C10.2229 19.297 10.2228 19.2974 10.223 19.2969L10.2134 19.3136L10.2051 19.331C10.1296 19.4886 10.0026 19.5666 9.81392 19.5972C9.62598 19.6277 9.4184 19.5997 9.27622 19.5606C9.03344 19.4317 8.89678 19.2621 8.68894 18.9151L8.68875 18.9148C8.67507 18.892 8.66198 18.8695 8.64833 18.846L8.64634 18.8425C8.63408 18.8214 8.61995 18.7971 8.60681 18.7754C8.59486 18.7557 8.57365 18.7212 8.54829 18.6881C8.53663 18.6728 8.51065 18.6399 8.47262 18.6061C8.45323 18.5889 8.41947 18.5614 8.37244 18.5362C8.32725 18.512 8.24369 18.476 8.133 18.476H7.99127L7.87063 18.5504L6.04563 19.6754L5.66117 19.9124L5.85797 20.3189C6.19559 21.0163 6.69994 21.6412 7.37442 22.0466L7.37586 22.0474C8.35765 22.633 9.64123 22.8043 10.9485 22.5109L10.9632 22.5076L10.9777 22.5034C11.8545 22.2503 12.6618 21.7148 13.0938 20.8426C13.3941 20.2903 13.5024 19.6945 13.5406 19.1009C13.5675 18.6827 13.5604 18.2322 13.5533 17.7867C13.5505 17.6117 13.5477 17.4376 13.547 17.2665C13.555 15.8972 13.5523 14.5259 13.5497 13.1523C13.5483 12.4704 13.547 11.7879 13.547 11.1048L13.5497 11.0666ZM0.5 0.5H23.5V23.5H0.5V0.5Z" stroke="white"/>
</g>
<defs>
<clipPath id="clip0_223_518">
<rect width="24" height="24" fill="white"/>
</clipPath>
</defs>
</svg>
