<svg width="120" height="120" viewBox="0 0 120 120" fill="none" xmlns="http://www.w3.org/2000/svg">
<path d="M82.025 27.5055C81.45 27.5055 81.06 27.5755 80.655 27.6705V27.7355H80.725C80.995 28.2555 81.455 28.6355 81.795 29.1005C82.065 29.6355 82.295 30.1705 82.565 30.7005L82.635 30.6255C83.105 30.2955 83.335 29.7655 83.335 28.9605C83.135 28.7255 83.105 28.4905 82.935 28.2605C82.735 27.9255 82.305 27.7605 82.035 27.4955L82.025 27.5055ZM28.85 93.4755H24.215C24.0847 86.1094 23.6342 78.7525 22.865 71.4255H22.825L15.775 93.4755H12.25L5.25 71.4255H5.2C4.65247 78.764 4.32732 86.1174 4.225 93.4755H0C0.275 83.6455 0.96 74.4255 2.05 65.8255H7.8L14.475 86.1455H14.515L21.25 65.8255H26.725C27.935 75.9005 28.645 85.1255 28.865 93.4755H28.85ZM48.935 73.0755C47.045 83.3005 44.555 90.7405 41.475 95.3755C39.065 98.9555 36.425 100.741 33.56 100.741C32.795 100.741 31.86 100.511 30.73 100.051V97.5805C31.28 97.6655 31.93 97.7105 32.66 97.7105C34 97.7105 35.075 97.3355 35.895 96.6005C36.88 95.7005 37.37 94.6905 37.37 93.5755C37.37 92.8005 36.985 91.2255 36.22 88.8555L31.15 73.0755H35.7L39.335 84.8755C40.155 87.5555 40.5 89.4255 40.36 90.4905C42.36 85.1705 43.75 79.3555 44.535 73.0755H48.935ZM110.56 93.4755H97.41V65.8255H101.835V90.0755H110.56V93.4755ZM93.96 94.1505L88.88 91.6505C89.33 91.2705 89.765 90.8605 90.155 90.4005C92.32 87.8705 93.395 84.1105 93.395 79.1355C93.395 69.9855 89.805 65.4055 82.62 65.4055C79.1 65.4055 76.35 66.5655 74.37 68.8905C72.22 71.4305 71.14 75.1705 71.14 80.1155C71.14 84.9755 72.09 88.5455 74.01 90.8155C75.76 92.8655 78.395 93.8905 81.925 93.8905C83.245 93.8905 84.455 93.7255 85.55 93.4005L92.175 97.2605L93.975 94.1505H93.96ZM77.5 87.9405C76.375 86.1405 75.815 83.2405 75.815 79.2605C75.815 72.2955 77.935 68.8105 82.165 68.8105C84.38 68.8105 86.015 69.6455 87.05 71.3105C88.17 73.1205 88.73 75.9905 88.73 79.9255C88.73 86.9455 86.61 90.4655 82.38 90.4655C80.155 90.4655 78.53 89.6305 77.49 87.9655L77.5 87.9405ZM69.21 85.8155C69.21 88.1655 68.35 90.0955 66.63 91.5955C64.91 93.0955 62.615 93.8455 59.71 93.8455C56.995 93.8455 54.39 92.9855 51.845 91.2705L53.03 88.8905C55.22 89.9905 57.195 90.5305 58.98 90.5305C60.64 90.5305 61.945 90.1655 62.895 89.4305C63.3698 89.0726 63.7532 88.6074 64.0139 88.073C64.2746 87.5385 64.4052 86.95 64.395 86.3555C64.395 84.7055 63.245 83.3055 61.155 82.1305C59.215 81.0655 55.34 78.8455 55.34 78.8455C53.23 77.3105 52.18 75.6655 52.18 72.9605C52.18 70.7105 52.965 68.9105 54.53 67.5355C56.105 66.1455 58.13 65.4605 60.63 65.4605C63.19 65.4605 65.53 66.1405 67.63 67.5105L66.565 69.8905C64.887 69.1534 63.0776 68.7623 61.245 68.7405C59.83 68.7405 58.735 69.0805 57.975 69.7705C57.5893 70.09 57.2784 70.4902 57.0642 70.9429C56.8499 71.3955 56.7376 71.8897 56.735 72.3905C56.735 74.0305 57.905 75.4405 60.065 76.6405C62.03 77.7155 66 79.9905 66 79.9905C68.165 81.5155 69.24 83.1405 69.24 85.8305L69.21 85.8155ZM116.12 56.5555C113.445 56.4855 111.37 56.7555 109.635 57.4955C109.135 57.6955 108.335 57.6955 108.265 58.3305C108.54 58.5955 108.58 59.0305 108.815 59.4005C109.215 60.0705 109.905 60.9655 110.545 61.4355C111.245 61.9855 111.945 62.5155 112.68 62.9855C113.98 63.7855 115.455 64.2605 116.73 65.0655C117.455 65.5355 118.195 66.1305 118.93 66.6305C119.295 66.8805 119.53 67.3305 120 67.4905V67.3905C119.77 67.0905 119.7 66.6555 119.475 66.3205C119.14 65.9855 118.805 65.6855 118.475 65.3555C117.493 64.0619 116.322 62.924 115 61.9805C113.93 61.2505 111.59 60.2305 111.15 59.0055L111.085 58.9355C111.815 58.8705 112.685 58.6055 113.385 58.4055C114.52 58.1055 115.56 58.1705 116.735 57.8755C117.265 57.7405 117.8 57.5755 118.335 57.4055V57.1055C117.735 56.5055 117.285 55.6905 116.665 55.1305C114.934 53.6178 113.089 52.242 111.145 51.0155C110.095 50.3455 108.765 49.9155 107.66 49.3455C107.26 49.1455 106.59 49.0455 106.36 48.7105C105.76 47.9805 105.41 47.0105 104.985 46.1405C104.003 44.236 103.091 42.2963 102.25 40.3255C101.65 39.0155 101.285 37.7105 100.55 36.5105C97.1 30.8255 93.365 27.3805 87.62 24.0105C86.385 23.3105 84.905 23.0105 83.34 22.6405C82.505 22.6005 81.67 22.5405 80.84 22.5055C80.29 22.2705 79.76 21.6355 79.29 21.3305C77.39 20.1305 72.47 17.5305 71.07 20.9705C70.17 23.1405 72.405 25.2805 73.18 26.3805C73.755 27.1455 74.48 28.0205 74.88 28.8805C75.115 29.4605 75.18 30.0555 75.415 30.6605C75.945 32.1305 76.45 33.7705 77.15 35.1455C77.515 35.8455 77.915 36.5805 78.385 37.2105C78.655 37.5755 79.115 37.7455 79.22 38.3455C78.75 39.0255 78.72 40.0155 78.45 40.8455C77.25 44.6305 77.72 49.3105 79.42 52.0955C79.955 52.9255 81.23 54.7655 82.935 54.0605C84.435 53.4605 84.105 51.5605 84.535 49.8855C84.635 49.4855 84.57 49.2205 84.775 48.9505V49.0255C85.245 49.9655 85.715 50.8605 86.145 51.8005C87.175 53.4405 88.975 55.1405 90.48 56.2755C91.28 56.8755 91.915 57.9155 92.915 58.2855V58.1855H92.84C92.625 57.8955 92.34 57.7555 92.07 57.5205C91.436 56.8999 90.851 56.2313 90.32 55.5205C88.9112 53.5956 87.6621 51.5588 86.585 49.4305C86.035 48.3805 85.575 47.2505 85.135 46.2155C84.935 45.8155 84.935 45.2155 84.6 45.0155C84.1 45.7455 83.365 46.3805 83 47.2805C82.365 48.7205 82.3 50.4905 82.06 52.3305C81.925 52.3655 81.99 52.3305 81.925 52.4005C80.855 52.1405 80.49 51.0305 80.09 50.1005C79.09 47.7255 78.925 43.9105 79.79 41.1755C80.025 40.4755 81.025 38.2655 80.625 37.5955C80.415 36.9605 79.755 36.5955 79.39 36.0805C78.9205 35.4102 78.5185 34.6951 78.19 33.9455C77.39 32.0755 76.99 30.0055 76.12 28.1355C75.72 27.2705 75.02 26.3655 74.45 25.5705C73.815 24.6705 73.115 24.0355 72.61 22.9705C72.445 22.6055 72.21 22.0005 72.475 21.6005C72.545 21.3305 72.685 21.2255 72.945 21.1505C73.385 20.7905 74.62 21.2605 75.055 21.4605C76.29 21.9605 77.33 22.4305 78.365 23.1305C78.835 23.4605 79.34 24.0955 79.94 24.2605H80.64C81.71 24.4955 82.915 24.3305 83.915 24.6255C85.69 25.1955 87.29 26.0255 88.725 26.9255C93.1467 29.7501 96.7432 33.6933 99.15 38.3555C99.55 39.1255 99.725 39.8305 100.09 40.6305C100.79 42.2805 101.655 43.9455 102.365 45.5405C103.065 47.1155 103.74 48.7205 104.745 50.0255C105.245 50.7255 107.255 51.0905 108.155 51.4555C108.82 51.7555 109.855 52.0305 110.455 52.3955C111.605 53.0955 112.725 53.8955 113.805 54.6655C114.355 55.0455 116.02 55.8805 116.12 56.5555Z" fill="#B4FAEC"/>
</svg>
