<svg width="120" height="120" viewBox="0 0 120 120" fill="none" xmlns="http://www.w3.org/2000/svg">
<path d="M35.05 51.0345H30.33L27.755 64.2744H31.945C34.725 64.2744 36.795 63.7495 38.155 62.7045C39.515 61.6545 40.43 59.9095 40.905 57.4595C41.365 55.1095 41.155 53.4495 40.285 52.4845C39.41 51.5195 37.67 51.0345 35.05 51.0345ZM60 28.4395C26.865 28.4395 0 42.5695 0 59.9995C0 77.4295 26.865 91.5645 60 91.5645C93.135 91.5645 120 77.4295 120 59.9995C120 42.5695 93.135 28.4395 60 28.4395ZM43.7 65.6945C42.395 66.9445 40.825 67.8844 39.115 68.4494C37.435 68.9894 35.29 69.2695 32.69 69.2695H26.785L25.15 77.6745H18.26L24.41 46.0445H37.66C41.645 46.0445 44.55 47.0895 46.38 49.1845C48.21 51.2745 48.76 54.1945 48.03 57.9445C47.7504 59.4283 47.2356 60.858 46.505 62.1795C45.79 63.4545 44.855 64.6295 43.7 65.6945ZM63.82 69.2695L66.535 55.2745C66.85 53.6845 66.73 52.5945 66.195 52.0195C65.66 51.4395 64.515 51.1494 62.76 51.1494H57.3L53.78 69.2745H46.94L53.09 37.6395H59.925L58.29 46.0495H64.38C68.215 46.0495 70.855 46.7195 72.31 48.0545C73.765 49.3895 74.2 51.5545 73.625 54.5495L70.765 69.2695H63.82ZM101.805 57.9445C101.53 59.4295 101.015 60.8599 100.28 62.1795C99.565 63.4545 98.63 64.6295 97.475 65.6945C96.1693 66.9406 94.6033 67.8816 92.89 68.4494C91.21 68.9894 89.065 69.2695 86.46 69.2695H80.56L78.925 77.6795H72.035L78.185 46.0495H91.43C95.415 46.0495 98.32 47.0945 100.15 49.1895C101.98 51.2745 102.535 54.1945 101.805 57.9445ZM88.83 51.0345H84.115L81.535 64.2744H85.725C88.51 64.2744 90.58 63.7495 91.935 62.7045C93.295 61.6545 94.21 59.9095 94.69 57.4595C95.15 55.1095 94.935 53.4495 94.065 52.4845C93.195 51.5195 91.445 51.0345 88.83 51.0345Z" fill="#B4FAEC"/>
</svg>
