<svg width="120" height="120" viewBox="0 0 120 120" fill="none" xmlns="http://www.w3.org/2000/svg">
<g clip-path="url(#clip0_223_524)">
<path d="M107.345 34.125C111.545 41.81 113.935 50.625 113.935 60C113.935 79.895 103.155 97.28 87.12 106.625L103.595 58.99C106.67 51.29 107.695 45.135 107.695 39.67C107.695 37.645 107.565 35.775 107.345 34.125ZM67.44 34.645C70.675 34.495 73.6 34.12 73.6 34.12C76.51 33.745 76.17 29.47 73.265 29.625C73.265 29.625 64.49 30.3 58.865 30.3C53.545 30.3 44.615 29.55 44.615 29.55C41.69 29.4 41.31 33.825 44.24 33.975C44.24 33.975 46.94 34.28 49.865 34.425L58.265 57.45L46.415 92.85L26.77 34.5C30.015 34.35 32.94 34 32.94 34C35.865 33.625 35.52 29.35 32.615 29.52C32.615 29.52 23.885 30.21 18.245 30.21C17.245 30.21 16.055 30.17 14.795 30.135C24.555 15.75 41.175 6.075 60 6.075C74.045 6.075 86.825 11.435 96.43 20.24C96.2 20.225 95.975 20.195 95.725 20.195C90.425 20.195 86.665 24.81 86.665 29.765C86.665 34.215 89.23 37.98 91.965 42.42C94.02 46.02 96.415 50.635 96.415 57.305C96.415 61.88 94.645 67.275 92.31 74.7L86.935 92.625L67.435 34.575L67.44 34.645ZM60 113.92C54.705 113.92 49.595 113.155 44.76 111.735L60.945 64.705L77.52 110.14C77.64 110.405 77.77 110.645 77.91 110.885C72.31 112.85 66.285 113.93 60 113.93M6.055 60C6.055 52.18 7.735 44.75 10.73 38.05L36.45 108.545C18.47 99.8 6.06 81.355 6.055 60ZM60 0C26.925 0 0 26.925 0 60C0 93.075 26.925 120 60 120C93.075 120 120 93.075 120 60C120 26.925 93.075 0 60 0Z" fill="#B4FAEC"/>
</g>
<defs>
<clipPath id="clip0_223_524">
<rect width="120" height="120" fill="white"/>
</clipPath>
</defs>
</svg>
